<?xml version="1.0" encoding="utf-8"?>
<!-- Generator: Adobe Illustrator 16.0.3, SVG Export Plug-In . SVG Version: 6.00 Build 0)  -->
<!DOCTYPE svg PUBLIC "-//W3C//DTD SVG 1.1//EN" "http://www.w3.org/Graphics/SVG/1.1/DTD/svg11.dtd">
<svg version="1.1" id="Capa_1" xmlns="http://www.w3.org/2000/svg" xmlns:xlink="http://www.w3.org/1999/xlink" x="0px" y="0px"
	 width="390.215px" height="155.768px" viewBox="0 0 390.215 155.768" enable-background="new 0 0 390.215 155.768"
	 xml:space="preserve">
<rect x="458.37" y="21.116" display="none" width="390.215" height="155.769"/>
<g>
	<path fill="#EBC200" d="M6.559,73.936h116.688c2.516,0,4.553,1.799,4.553,4.018c0,2.219-2.037,4.018-4.553,4.018H6.559
		c-2.518,0-4.555-1.799-4.555-4.018C2.004,75.737,4.043,73.936,6.559,73.936L6.559,73.936z"/>
	<path fill="#EBC200" d="M267.975,73.936h116.691c2.512,0,4.549,1.799,4.549,4.018c0,2.219-2.037,4.018-4.549,4.018H267.975
		c-2.512,0-4.551-1.799-4.551-4.018C263.424,75.735,265.463,73.936,267.975,73.936L267.975,73.936z"/>
	<path fill="#C5453E" d="M107.225,98.925l98.396-44.552l-0.059,27.292l75.066-26.089c0,0,1.145-0.215,1.523,0.596
		c0.363,0.771-0.27,1.55-0.27,1.55l-95.813,43.295v-26.25l-77.783,27.542c0,0-1.092,0.264-1.703-1.225
		C106.096,99.894,107.225,98.925,107.225,98.925L107.225,98.925z"/>
	<path fill="#4D565E" d="M36.211,1.887c-3.531-1.219-7.43-1.889-11.207-1.889C11.542-0.001,1,10.721,1,24.124
		c0,13.098,10.236,23.271,23.334,23.271c2.984,0,9.199-0.549,11.877-1.83L36.7,28.388c-2.68,2.618-5.725,4.265-9.564,4.265
		c-4.994,0-9.32-3.899-9.32-8.956c0-4.996,4.082-8.953,9.078-8.953c3.775,0,7.127,2.131,9.809,4.629L36.211,1.887L36.211,1.887z"/>
	<path fill="#4D565E" d="M56.696,40.939h12.609l1.521,5.727h17.666L72.108,0.731H53.649L37.688,46.665h17.666L56.696,40.939
		L56.696,40.939z M59.68,30.033l3.047-14.01h0.607c0.307,1.948,0.609,3.958,1.096,5.908l1.949,8.102H59.68L59.68,30.033z"/>
	<polygon fill="#4D565E" points="83.168,15.656 92.372,15.228 92.372,46.665 109.061,46.665 109.061,15.228 118.26,15.656 
		118.26,0.731 83.168,0.731 	"/>
	<path fill="#4D565E" d="M131.856,40.939h12.609l1.523,5.727h17.668L147.27,0.732h-18.461l-15.963,45.934h17.67L131.856,40.939
		L131.856,40.939z M134.84,30.033l3.045-14.01h0.611c0.305,1.948,0.607,3.958,1.096,5.908l1.951,8.102H134.84L134.84,30.033z"/>
	<polygon fill="#4D565E" points="166.375,46.665 197.083,46.665 197.083,31.923 183.071,31.923 183.071,0.731 166.375,0.731 	"/>
	<path fill="#4D565E" d="M226.461,0.731v25.587c0,3.592-0.123,6.762-4.566,6.762c-4.445,0-4.568-3.169-4.568-6.762V0.731h-16.691
		V27.9c0,13.403,8.404,19.496,21.262,19.496c12.854,0,21.258-6.092,21.258-19.496V0.731H226.461L226.461,0.731z"/>
	<path fill="#4D565E" d="M249.522,46.665h15.959V31.74c0-3.049-0.484-6.033-1.031-9.198h0.482l14.688,24.122h15.957V0.731H279.62
		V14.5c0,3.9,0.729,7.858,1.396,11.696h-0.484L265.543,0.731h-16.021V46.665L249.522,46.665z"/>
	<path fill="#4D565E" d="M297.86,0.731l16.025,26.137v19.797h16.322V26.867L345.93,0.731h-18.766l-3.291,7.677
		c-0.609,1.399-1.033,2.863-1.523,4.327h-0.484L316.75,0.731H297.86L297.86,0.731z"/>
	<path fill="#4D565E" d="M357.223,40.939h12.609l1.521,5.727h17.67L372.635,0.732h-18.461l-15.963,45.934h17.668L357.223,40.939
		L357.223,40.939z M360.206,30.033l3.047-14.01h0.609c0.307,1.948,0.609,3.958,1.098,5.908l1.949,8.102H360.206L360.206,30.033z"/>
	<path fill="#4D565E" d="M84.534,155.04h16.34v-14.756h0.303l7.318,14.756h19.264l-9.998-14.939
		c-0.914-1.34-1.949-2.072-2.803-2.744v-0.365c6.217-2.072,8.9-5,8.9-11.947c0-11.582-8.779-15.975-19.145-15.975h-20.18V155.04
		L84.534,155.04z M100.872,121.63h1.281c2.865,0,5.365,0.426,5.365,3.961c0,3.414-2.744,3.844-5.488,3.844h-1.158V121.63
		L100.872,121.63z"/>
	<path fill="#4D565E" d="M146.625,98.281l8.703,8.063l5.709-2.992l-5.564-7.645L146.625,98.281L146.625,98.281z M148.422,149.304
		h12.619l1.525,5.734h17.68l-16.4-45.971h-18.473l-15.971,45.971h17.678L148.422,149.304L148.422,149.304z M151.413,138.396
		l3.047-14.021h0.609c0.305,1.949,0.609,3.963,1.098,5.912l1.947,8.109H151.413L151.413,138.396z"/>
	<path fill="#4D565E" d="M182.448,155.04h21.154c13.477,0,23.105-8.66,23.105-22.314c0-16.889-11.824-23.656-27.248-23.656h-17.012
		V155.04L182.448,155.04z M199.151,123.458h1.035c6.102,0,9.816,2.742,9.816,9.205c0,6.037-4.27,8.596-9.816,8.596h-1.035V123.458
		L199.151,123.458z"/>
	<polygon fill="#4D565E" points="232.073,155.04 248.776,155.04 248.776,109.07 232.073,109.07 	"/>
	<path fill="#4D565E" d="M278.879,108.341c-13.965,0-25.426,9.387-25.426,23.834c0,14.754,11.402,23.594,25.426,23.594
		c14.02,0,25.424-8.838,25.424-23.594C304.303,117.728,292.838,108.341,278.879,108.341L278.879,108.341z M278.879,123.458
		c5.305,0,8.596,4.084,8.596,8.961c0,5.246-3.533,8.84-8.596,8.84c-5.061,0-8.598-3.594-8.598-8.84
		C270.286,127.542,273.577,123.458,278.879,123.458L278.879,123.458z"/>
	<path fill="#EBC100" stroke="#EBC100" stroke-width="0.4601" stroke-miterlimit="3.8637" d="M90.245,98.103"/>
	<path fill="#EBC100" stroke="#EBC100" stroke-width="0.4601" stroke-miterlimit="3.8637" d="M23.368,98.103"/>
	<path fill="#BF0024" stroke="#BF0024" stroke-width="0.4601" stroke-miterlimit="3.8637" d="M126.252,98.581"/>
</g>
</svg>
