<svg xmlns="http://www.w3.org/2000/svg" xmlns:xlink="http://www.w3.org/1999/xlink" version="1.1" style="enable-background:new 0 0 800 600;" xml:space="preserve" width="459" height="89"><rect id="backgroundrect" width="100%" height="100%" x="0" y="0" fill="none" stroke="none" class="" style=""/>
<style type="text/css">
	.st0{fill:#333333;}
	.st1{fill:#E0565A;}
</style>



<g class="currentLayer" style=""><title>Layer 1</title><g id="svg_12" class="">
	<g id="svg_13">
		<path class="st0" d="M267.7000045776367,15.599996948242165 l4.6,-15.5 l-15.1,0 l-0.7000000000000002,2.1 c1.9,0.2 7,-0.3000000000000001 7,2.4 c0,1.1 -1,4.3 -1.2,5.4 l-4.5,15.7 c-1.2,-2.3 -3.5,-4 -6.2,-4 c-10.1,0 -19.3,10.9 -23.1,21.3 c-0.7000000000000002,2.2 -1.2,4.2 -1.6,6.6 c-0.1,0.8 -0.1,1.6 -0.1,2.4 c0,6.6 4,12.3 11.1,12.3 c7.1,0 11.5,-7.2 14.3,-12.8 l0.2,0.2 c-0.4,1.9 -0.9,4 -0.9,6.1 c0,3.5 1.9,6.4 5.7,6.4 c6.5,0 11.4,-10.1 13.4,-15.3 l-2.1,-0.8 c-1.2,2.9 -6,13.2 -9.2,13.2 c-1.3,0 -1.5,-1.8 -1.5,-2.8 c0,-6.9 4.1,-21 5.9,-28 L267.7000045776367,15.599996948242165 zM238.70000457763672,62.099996948242165 c-3.6,0 -5.1,-3.4 -5.1,-6.4 c0,-7.8 8.8,-31.9 18.2,-31.9 c3.2,0 4.4,3.4 4.4,6 C256.2000045776367,37.19999694824219 248.6000045776367,62.099996948242165 238.70000457763672,62.099996948242165 z" id="svg_14"/>
		<path class="st0" d="M347.90000457763676,61.29999694824221 c-0.9,0 -1.4,-0.9 -1.4,-1.6 c0,-1.7000000000000002 2.3,-7.5 2.9,-9.1 l3.1,-7.8 c1.7000000000000002,-4.3 4.5,-10.1 4.5,-14.7 c0,-3.4 -2.3,-6.5 -5.9,-6.5 c-6.1,0 -10.1,7.6 -12.8,12.3 l1.9,1.1 c1.3,-2.6 6,-10.5 9,-10.5 c1.1,0 1.6,1 1.6,1.9 c0,2.3 -2.7,9.2 -3.5,11.5 l-2.7,6.4 c-1.5,3.7 -4.2,8.9 -4.2,12.9 c0,3.7 2.3,6.9 6.2,6.9 c6.2,0 11.2,-8.4 13.6,-13.4 l-1.9,-1 C356.80000457763674,52.79999694824221 351.6000045776367,61.29999694824221 347.90000457763676,61.29999694824221 z" id="svg_15"/>
		<path class="st0" d="M384.2000045776367,9.599996948242193 h-6.6 l-4.5,13.3 h-7.6 l-0.8,2.1 h7.6 l-5.5,18.9 c-1.2,3.9 -3.1,9.9 -3.1,13.9 c0,3.7 2.7,6.4 6.4,6.4 c7.5,0 11,-8.9 13.8,-14.4 l-1.9,-1.1 c-1.6,3.1 -5.8,12.6 -9.8,12.6 c-1.4,0 -1.6,-1.2 -1.6,-2.6 c0,-3.5 6.5,-26.6 8,-31.3 l0.8,-2.5 h7.5 l0.7000000000000002,-2.1 h-7.5 L384.2000045776367,9.599996948242193 z" id="svg_16"/>
		<path class="st0" d="M420.2000045776367,61.29999694824221 c-1.2,0 -1.2,-1.4 -1.2,-2.3 c0,-5.7 4.5,-19.8 6.3,-24.7 l4.2,-11.4 h-6.8 l-1.4,3.9 c-1.2,-3.2 -3.7,-5.2 -7.3,-5.2 c-13.4,0 -26,18.9 -26,31.3 c0,6.2 4.4,11.3 10.8,11.3 c6.6,0 11.3,-5.9 14.3,-11.1 l0.2,0.2 c-0.3000000000000001,1.7000000000000002 -0.9,3.5 -0.9,5.5 c0,3.5 2.3,5.5 5.8,5.5 c7.4,0 10.4,-9.5 13.3,-15.1 l-2,-0.9 C428.1000045776367,51.19999694824219 423.5000045776367,61.29999694824221 420.2000045776367,61.29999694824221 zM413.7000045776367,47.4999969482422 c-2.6,5.5 -7.3,14.6 -14.1,14.6 c-3.4,0 -4.7,-3.6 -4.7,-6.5 c0,-7.8 10.3,-31.8 19.8,-31.8 c2.8,0 4.5,2.5 4.5,5.1 C419.30000457763674,34.29999694824221 416.0000045776367,42.4999969482422 413.7000045776367,47.4999969482422 z" id="svg_17"/>
		<path class="st0" d="M443.1000045776367,61.29999694824221 c-1.4,0 -1.8,-1.6 -1.8,-2.8 c0,-5.2 4.1,-17.7 5.8,-23.1 l11.4,-35.3 l-16,0 l-0.6000000000000002,2.1 c2.2,0.2 6.9,-0.4 6.9,3.1 c0,1.1 -0.7000000000000002,3 -1,3.9 l-9.8,32.1 c-1.2,3.6 -3.6,11.8 -3.6,15.3 c0,4.2 2.2,7.6 6.7,7.6 c7.1,0 11.2,-8.6 14,-13.9 l-2.2,-1.1 C451.7000045776367,52.099996948242165 446.30000457763674,61.29999694824221 443.1000045776367,61.29999694824221 z" id="svg_18"/>
		<path class="st0" d="M339.30000457763674,21.599996948242165 h-19.4 c-10,0 -18.7,10.1 -18.7,19.7 c0,4.3 2.8,8.1 6.4,10.3 c-4.8,1 -10.5,3.4 -10.5,9.1 c0,7.6 11.3,8.7 16.8,9.6 c4.9,0.7000000000000002 12.1,1.1 12.1,7.6 c0,7.2 -8.3,8.9 -14.1,8.9 c-6.4,0 -13.8,-1.9 -13.8,-9.5 c0,-3.1 1.8,-5.6 4.7,-6.6 c-1.2,-0.7000000000000002 -2.4,-1.1 -3.8,-1.1 c-3.9,0 -7.1,3.2 -7.1,7.1 c0,9.6 11.4,12.3 19.3,12.3 c8.8,0 20.1,-3 20.1,-13.5 c0,-17.9 -28.4,-9.3 -28.4,-17.8 c0,-3.9 7.6,-4 10.4,-4 c10.6,-0.2 18.4,-9.7 18.4,-20 c0,-1.7000000000000002 -0.5,-3.4 -1.1,-5.1 c-0.1,-0.3000000000000001 -1.2,-2.2 -1.2,-2.2 c-0.4,-0.5 -0.8,-0.9 -1.3,-1.4 h9.6 L339.30000457763674,21.599996948242165 zM314.1000045776367,51.399996948242176 c-3.9,0 -5.9,-3.5 -5.9,-7 c0,-5.8 3.8,-20.6 11.2,-20.6 c3.6,0 5.5,3.5 5.5,6.9 C324.80000457763674,36.599996948242165 321.80000457763674,51.399996948242176 314.1000045776367,51.399996948242176 z" id="svg_19"/>
		<path class="st0" d="M357.40000457763676,3.1999969482421875 c-3.4,0 -6.2,2.8 -6.2,6.2 c0,3.1 2.8,6 5.9,6 c3.4,0 6.3,-2.5 6.3,-6 C363.40000457763676,5.999996948242199 360.90000457763676,3.1999969482421875 357.40000457763676,3.1999969482421875 z" id="svg_20"/>
		<path class="st0" d="M283.2000045776367,61.29999694824221 c-0.9,0 -1.4,-0.9 -1.4,-1.6 c0,-1.7000000000000002 2.3,-7.5 2.9,-9.1 l3.1,-7.8 c1.7000000000000002,-4.3 4.5,-10.1 4.5,-14.7 c0,-3.4 -2.3,-6.5 -5.9,-6.5 c-6.1,0 -10.1,7.6 -12.8,12.3 l1.9,1.1 c1.3,-2.6 6,-10.5 9,-10.5 c1.1,0 1.6,1 1.6,1.9 c0,2.3 -2.7,9.2 -3.5,11.5 l-2.7,6.4 c-1.5,3.7 -4.2,8.9 -4.2,12.9 c0,3.7 2.3,6.9 6.2,6.9 c6.2,0 11.2,-8.4 13.6,-13.4 l-1.9,-1 C292.00000457763673,52.79999694824221 286.80000457763674,61.29999694824221 283.2000045776367,61.29999694824221 z" id="svg_21"/>
		<path class="st1" d="M292.6000045776367,3.1999969482421875 c-3.4,0 -6.2,2.8 -6.2,6.2 c0,3.1 2.8,6 5.9,6 c3.4,0 6.3,-2.5 6.3,-6 C298.6000045776367,5.999996948242199 296.1000045776367,3.1999969482421875 292.6000045776367,3.1999969482421875 z" id="svg_22"/>
	</g>
	<g id="svg_23">
		<path class="st0" d="M70.40000457763671,0.0999969482421932 c-3.8,0.1 -18.6,0.1 -22.2,0 v3.4 c9,0.4 9,7.4 9,14.6 v25.4 l-37.5,-43.5 c-3.6,0.1 -16.7,0.1 -19.7,0 v3.4 c5.2,0.5 6.5,2.2 9.5,6.5 v38.4 c0,6.8 -0.6000000000000002,10.7 -8.4,11.5 v3.4 c3.6,-0.1 18.5,-0.1 22.3,0 v-3.4 c-9.1,-0.4 -9.1,-7.8 -9.1,-15.1 v-29.5 l43.1,49.4 h4.7 v-46 c0,-3.2 0,-9 1.4,-11.8 c1.3,-2.6 4.4,-3 7,-3.4 V0.0999969482421932 z" id="svg_24"/>
		<path class="st0" d="M107.6000045776367,57.29999694824221 c-2,0 -2,-3.2 -2,-4.8 V33.19999694824219 c0,-9.7 -8.7,-11.8 -16.9,-11.8 c-5.9,0 -18.3,1.3 -18.3,9.4 c0,3 2.2,5.1 5.1,5.1 c3.8,0 5,-2.9 6.2,-6 c1.3,-3.2 2.4,-4.7 6,-4.7 c5.1,0 5.5,4.2 5.5,8.4 c0,3.6 -2.4,3.6 -5.3,4.7 c-8.4,3.2 -19.1,6.5 -19.1,15.9 c0,6.2 4.9,10.3 10.9,10.3 c4.9,0 10,-2.8 13.4,-6.4 c1.2,4.3 3.7,6.4 8.3,6.4 c4,0 9.4,-2.2 11.4,-5.9 l-1.9,-2.6 C109.80000457763674,56.79999694824221 109.1000045776367,57.29999694824221 107.6000045776367,57.29999694824221 zM93.20000457763672,51.399996948242176 c0,3.1 -3.5,5.9 -6.4,5.9 c-3.4,0 -4.7,-3.4 -4.7,-6.5 c0,-6.1 6.3,-8.6 11,-10.7 V51.399996948242176 z" id="svg_25"/>
		<path class="st0" d="M138.1000045776367,59.099996948242165 c-9.7,0 -11.5,-9.4 -11.5,-17.1 c0,-5.6 0.9,-16.8 8.4,-16.8 c6.6,0 4,10.4 11.6,10.4 c2.8,0 4.9,-2.4 4.9,-5.1 c0,-6.7 -9.8,-9.1 -15,-9.1 c-13,0 -23.7,8.4 -23.7,22.1 c0,12.6 8.6,20.9 21.1,20.9 c7.5,0 14,-3.2 18.2,-9.5 l-2.9,-2.6 C146.1000045776367,55.9999969482422 143.1000045776367,59.099996948242165 138.1000045776367,59.099996948242165 z" id="svg_26"/>
		<path class="st0" d="M175.00000457763673,59.19999694824219 c-0.9,-1.2 -0.9,-5.5 -0.9,-7.1 v-30.1 c-6.3,1.5 -12.3,2.4 -18.5,2.8 v3.1 c5,-0.1 6.1,2 6.1,7.7 v16.4 c0,1.6 0,5.9 -0.9,7.1 c-1,1.4 -3.5,1.7000000000000002 -5,1.7000000000000002 v3 c4.3,-0.1 8.4,-0.3000000000000001 12.7,-0.4 c4,0.1 7.9,0.3000000000000001 11.7,0.4 v-3 C178.6000045776367,60.899996948242176 176.1000045776367,60.599996948242165 175.00000457763673,59.19999694824219 z" id="svg_27"/>
		<path class="st0" d="M167.70000457763672,15.099996948242165 c3.4,0 6.3,-2.5 6.3,-6 c0,-3.4 -2.5,-6.2 -6,-6.2 c-3.4,0 -6.2,2.8 -6.2,6.2 C161.70000457763672,12.199996948242188 164.6000045776367,15.099996948242165 167.70000457763672,15.099996948242165 z" id="svg_28"/>
		<path class="st0" d="M227.9000045776367,42.79999694824221 c0,-12.7 -10.6,-21.4 -22.8,-21.4 c-11.8,0 -23.2,8.7 -23.2,21.3 c0,13.2 10.9,21.7 23.4,21.7 c9.3,0 17.5,-5.2 20.8,-13.3 c0.8,-2 1.4,-4.1 1.6,-6.4 C227.80000457763674,44.099996948242165 227.9000045776367,43.399996948242176 227.9000045776367,42.79999694824221 zM205.9000045776367,60.599996948242165 c-9.5,0 -10.2,-11 -10.2,-18 c0,-6.3 1,-17.4 9.5,-17.4 c8.6,0 8.9,11.6 8.9,17.9 C214.1000045776367,48.69999694824219 213.80000457763674,60.599996948242165 205.9000045776367,60.599996948242165 z" id="svg_29"/>
		<path class="st0" d="M208.70000457763672,10.299996948242182 l2.1,-1.2 c-0.4,0.3000000000000001 2.7,-1.5 2.6,-3.5 c-0.2,-2.7 -3.2,-2.9 -4.4,-2.7 c-2.1,0.4 -3.6,2.2 -4.8,3.4 l-8.5,9 h3.7 L208.70000457763672,10.299996948242182 z" id="svg_30"/>
	</g>
</g></g></svg>