<?xml version="1.0" encoding="utf-8"?>
<!-- Generator: Adobe Illustrator 16.0.3, SVG Export Plug-In . SVG Version: 6.00 Build 0)  -->
<!DOCTYPE svg PUBLIC "-//W3C//DTD SVG 1.1//EN" "http://www.w3.org/Graphics/SVG/1.1/DTD/svg11.dtd">
<svg version="1.1" id="Capa_1" xmlns="http://www.w3.org/2000/svg" xmlns:xlink="http://www.w3.org/1999/xlink" x="0px" y="0px"
	 width="196.342px" height="160.164px" viewBox="0 0 196.342 160.164" enable-background="new 0 0 196.342 160.164"
	 xml:space="preserve">
<g id="Background">
</g>
<g id="Guides">
</g>
<path d="M169.596,79.401c20.088-10.672,18.59-29.279,18.59-33.658C188.186,21.536,162.879,0,133.553,0
	C116.627,0,97.53,6.502,88.09,20.498c-6.507,9.454-9.692,20.854-10.303,26.392h39.143c0.82-3.51,3.473-13.961,17.422-14.163
	c11.267,0,16.599,7.392,16.599,17.022c0,14.371-14.755,15.388-20.285,15.388h-10.539v28.53h10.539
	c5.53,0,20.285,1.021,20.285,15.396c0,9.656-5.332,17.022-16.599,17.022c-13.952-0.194-16.602-10.665-17.422-14.146H77.786
	c0.609,5.533,1.631,17.021,8.404,26.875c9.828,14.572,29.705,21.35,47.33,21.35c30.529,0,56.162-21.135,56.162-47.626
	C189.684,107.984,189.684,90.078,169.596,79.401L169.596,79.401z"/>
<polygon fill="#E4191D" points="0,27.19 92.107,79.401 77.467,87.891 0,43.959 "/>
<polygon fill="#E4191D" points="0,54.143 68.339,92.88 53.695,101.367 0,70.91 "/>
<polygon fill="#E4191D" points="0,81.098 44.567,106.458 29.926,114.948 0,97.859 "/>
<polygon fill="#E4191D" points="0,108.044 20.801,119.938 0,131.816 "/>
</svg>
